<svg xmlns="http://www.w3.org/2000/svg" viewBox="0 0 24 24" fill="none">
  <defs>
    <linearGradient id="googleGrad" x1="0%" y1="0%" x2="100%" y2="100%">
      <stop offset="0%" style="stop-color:#4285F4;stop-opacity:1" />
      <stop offset="25%" style="stop-color:#34A853;stop-opacity:1" />
      <stop offset="50%" style="stop-color:#FBBC05;stop-opacity:1" />
      <stop offset="75%" style="stop-color:#EA4335;stop-opacity:1" />
      <stop offset="100%" style="stop-color:#4285F4;stop-opacity:1" />
    </linearGradient>
  </defs>
  
  <!-- Search Console icon base - monitor/screen -->
  <rect x="2" y="4" width="20" height="13" rx="2" stroke="url(#googleGrad)" stroke-width="1.5" fill="none"/>
  <rect x="4" y="6" width="16" height="9" fill="url(#googleGrad)" opacity="0.1"/>
  
  <!-- Google "G" in center -->
  <path d="M12 8.5c-1.38 0-2.5 1.12-2.5 2.5s1.12 2.5 2.5 2.5c.69 0 1.31-.28 1.76-.73h-1.76v-1h3c.03.16.05.33.05.5 0 2.21-1.79 4-4 4s-4-1.79-4-4 1.79-4 4-4c1.1 0 2.08.45 2.79 1.17l-.71.71c-.56-.56-1.34-.88-2.08-.88z" fill="url(#googleGrad)"/>
  
  <!-- Search/analytics elements -->
  <path d="M17.5 19.5h3M19 21v-3" stroke="url(#googleGrad)" stroke-width="1.5" stroke-linecap="round"/>
  <circle cx="19" cy="19.5" r="1.5" stroke="url(#googleGrad)" stroke-width="1.5" fill="none"/>
  
  <!-- Chart/analytics bars -->
  <rect x="5" y="12" width="1" height="2" fill="url(#googleGrad)" opacity="0.6"/>
  <rect x="7" y="11" width="1" height="3" fill="url(#googleGrad)" opacity="0.8"/>
  <rect x="9" y="10" width="1" height="4" fill="url(#googleGrad)"/>
</svg>
